# xmcd CD database file
#
# Track frame offsets:
#	150
#	17335
#	27000
#	37675
#	48560
#	59005
#	68497
#	78470
#	87807
#	104745
#	121975
#	142597
#	149882
#	156590
#
# Disc length: 2126 seconds
#
# Revision: 1
# Processed by: cddbd v1.5.2PL0 Copyright (c) Steve Scherf et al.
# Submitted via: CDex 1.51
#
DISCID=b8084c0e
DTITLE=東亜プラン - ヴィマナ･テキパキ
DYEAR=1991
DGENRE=ゲーム音楽
TTITLE0=SPACE HIGH  (Arrange Version)
TTITLE1=COIN ～ OPENING ～ SPACE HIGH  
TTITLE2=THE POWER OF DARKNESS
TTITLE3=MAX. POWER UP
TTITLE4=HYPER VOLTAGE WARS
TTITLE5=BIT MAN
TTITLE6=烈火の如く
TTITLE7=BACK TO THE EARTH ～ GAME OVER ～ NAME ENTRY ～ CONTINUE
TTITLE8=COIN ～ G.E.A.R.
TTITLE9=HIGHER
TTITLE10=Quick, Junk, Seaquence
TTITLE11=Epilogue ～ Le-VEL ～ MECHATROPOLIS
TTITLE12=S.E. Collection  (VIMANA)
TTITLE13=S.E. Collection  (TEKI-PAKI)
EXTD=YEAR: 1991
EXTT0=
EXTT1=
EXTT2=
EXTT3=
EXTT4=
EXTT5=
EXTT6=
EXTT7=
EXTT8=
EXTT9=
EXTT10=
EXTT11=
EXTT12=
EXTT13=
PLAYORDER=
